<svg width="28" height="21" viewBox="0 0 28 21" fill="none" xmlns="http://www.w3.org/2000/svg">
<path d="M23.241 1.6849C21.5413 0.905035 19.7187 0.330462 17.8131 0.00138045C17.7784 -0.00497072 17.7437 0.0109012 17.7258 0.0426458C17.4914 0.459551 17.2318 1.00344 17.0499 1.43093C15.0003 1.12408 12.9612 1.12408 10.9535 1.43093C10.7717 0.993936 10.5026 0.459551 10.2671 0.0426458C10.2493 0.0119604 10.2146 -0.00391156 10.1799 0.00138045C8.27529 0.32941 6.45268 0.903983 4.75199 1.6849C4.73726 1.69125 4.72464 1.70184 4.71627 1.71559C1.25916 6.88043 0.312115 11.9183 0.776704 16.8938C0.778806 16.9181 0.79247 16.9414 0.811391 16.9562C3.09229 18.6312 5.30173 19.6481 7.47015 20.3222C7.50485 20.3328 7.54162 20.3201 7.56371 20.2915C8.07665 19.591 8.53388 18.8524 8.92592 18.0757C8.94906 18.0302 8.92697 17.9762 8.87969 17.9583C8.15443 17.6831 7.46384 17.3477 6.79954 16.9668C6.74699 16.9361 6.74279 16.8609 6.79112 16.825C6.93092 16.7202 7.07075 16.6112 7.20423 16.5012C7.22838 16.4811 7.26203 16.4768 7.29043 16.4895C11.6546 18.482 16.3793 18.482 20.692 16.4895C20.7204 16.4758 20.7541 16.48 20.7793 16.5001C20.9128 16.6102 21.0526 16.7202 21.1934 16.825C21.2418 16.8609 21.2386 16.9361 21.1861 16.9668C20.5218 17.3551 19.8312 17.6831 19.1049 17.9572C19.0576 17.9752 19.0365 18.0302 19.0597 18.0757C19.4601 18.8513 19.9174 19.5899 20.4208 20.2904C20.4419 20.3201 20.4797 20.3328 20.5144 20.3222C22.6933 19.6481 24.9027 18.6312 27.1836 16.9562C27.2036 16.9414 27.2163 16.9192 27.2184 16.8948C27.7744 11.1427 26.287 6.14609 23.2756 1.71664C23.2683 1.70184 23.2557 1.69125 23.241 1.6849ZM9.57764 13.8642C8.26373 13.8642 7.1811 12.658 7.1811 11.1765C7.1811 9.69512 8.24273 8.48885 9.57764 8.48885C10.923 8.48885 11.9952 9.70571 11.9741 11.1765C11.9741 12.658 10.9125 13.8642 9.57764 13.8642ZM18.4384 13.8642C17.1246 13.8642 16.0419 12.658 16.0419 11.1765C16.0419 9.69512 17.1035 8.48885 18.4384 8.48885C19.7839 8.48885 20.856 9.70571 20.835 11.1765C20.835 12.658 19.7839 13.8642 18.4384 13.8642Z" fill="#75798A"/>
</svg>
