<svg width="30" height="30" viewBox="0 0 30 30" fill="none"
  xmlns="http://www.w3.org/2000/svg">
  <path fill-rule="evenodd" clip-rule="evenodd" d="M25.1409 25.1424H20.8721V18.4576C20.8721 16.8656 20.8449 14.8144 18.6529 14.8144C16.4289 14.8144 16.0913 16.552 16.0913 18.3456V25.1424H11.8225V11.3984H15.9169V13.2768H15.9761C16.5457 12.1968 17.9393 11.0576 20.0177 11.0576C24.3425 11.0576 25.1425 13.9024 25.1425 17.6048V25.1424H25.1409ZM7.0081 9.52156C6.68284 9.52188 6.3607 9.45812 6.06008 9.33394C5.75946 9.20977 5.48625 9.02759 5.25603 8.79782C5.02582 8.56805 4.84311 8.29519 4.71835 7.99481C4.59359 7.69443 4.52921 7.37242 4.5289 7.04716C4.52858 6.7219 4.59233 6.39977 4.71651 6.09915C4.84069 5.79853 5.02287 5.52531 5.25264 5.2951C5.48241 5.06488 5.75527 4.88218 6.05565 4.75742C6.35603 4.63265 6.67804 4.56828 7.0033 4.56796C7.66019 4.56733 8.29042 4.82766 8.75536 5.2917C9.2203 5.75574 9.48186 6.38547 9.4825 7.04236C9.48313 7.69925 9.2228 8.32949 8.75876 8.79443C8.29472 9.25937 7.66499 9.52093 7.0081 9.52156ZM4.8689 25.1424H9.1441V11.3984H4.8673V25.1424H4.8689ZM27.2689 0.601562H2.7249C1.5521 0.601562 0.600098 1.53116 0.600098 2.67836V27.3232C0.600098 28.4704 1.5521 29.4016 2.7249 29.4016H27.2689C28.4433 29.4016 29.4001 28.4704 29.4001 27.3232V2.67836C29.4001 1.53116 28.4433 0.601562 27.2689 0.601562Z" fill="#75798A"/>
</svg>
