<svg width="36" height="36" viewBox="0 0 36 36" fill="none" xmlns="http://www.w3.org/2000/svg">
<g clip-path="url(#clip0_50826_27710)">
<circle cx="18" cy="18" r="18" fill="#23994B"/>
<path d="M17.4533 27.8642V8.52539H18.6922V27.8642H17.4533ZM21.0264 14.7123C20.9559 14.0526 20.6588 13.5389 20.135 13.1712C19.6163 12.8036 18.9415 12.6198 18.1105 12.6198C17.5263 12.6198 17.0252 12.7079 16.6072 12.8842C16.1892 13.0605 15.8694 13.2997 15.6478 13.6018C15.4262 13.904 15.3129 14.249 15.3079 14.6368C15.3079 14.9591 15.3809 15.2386 15.527 15.4753C15.678 15.712 15.882 15.9134 16.1389 16.0796C16.3957 16.2408 16.6802 16.3768 16.9925 16.4876C17.3047 16.5984 17.6195 16.6915 17.9368 16.7671L19.3872 17.1297C19.9714 17.2656 20.5329 17.4495 21.0718 17.6811C21.6157 17.9128 22.1017 18.2049 22.5297 18.5574C22.9629 18.9099 23.3053 19.3355 23.5571 19.8341C23.8089 20.3327 23.9348 20.9169 23.9348 21.5867C23.9348 22.4932 23.7032 23.2914 23.2398 23.9814C22.7765 24.6663 22.1067 25.2026 21.2304 25.5904C20.3592 25.9732 19.3041 26.1645 18.0652 26.1645C16.8615 26.1645 15.8165 25.9782 14.9302 25.6055C14.0489 25.2328 13.3589 24.6889 12.8603 23.9738C12.3668 23.2587 12.0999 22.3874 12.0596 21.36H14.8169C14.8572 21.8989 15.0233 22.3471 15.3154 22.7047C15.6075 23.0623 15.9878 23.3292 16.4561 23.5054C16.9295 23.6817 17.4583 23.7698 18.0425 23.7698C18.6519 23.7698 19.1857 23.6792 19.644 23.4979C20.1074 23.3115 20.47 23.0547 20.7318 22.7274C20.9937 22.395 21.1272 22.0072 21.1322 21.564C21.1272 21.1611 21.0088 20.8287 20.7772 20.5668C20.5455 20.2999 20.2207 20.0783 19.8027 19.9021C19.3897 19.7208 18.9062 19.5596 18.3522 19.4186L16.5921 18.9653C15.318 18.638 14.3107 18.1419 13.5704 17.4772C12.8351 16.8074 12.4675 15.9185 12.4675 14.8105C12.4675 13.899 12.7143 13.1007 13.2078 12.4158C13.7064 11.7309 14.3838 11.1996 15.2399 10.8219C16.0961 10.4391 17.0655 10.2478 18.1483 10.2478C19.2462 10.2478 20.2081 10.4391 21.034 10.8219C21.865 11.1996 22.5172 11.7259 22.9906 12.4007C23.4639 13.0705 23.7082 13.8411 23.7233 14.7123H21.0264Z" fill="white"/>
</g>
<defs>
<clipPath id="clip0_50826_27710">
<rect width="36" height="36" fill="white"/>
</clipPath>
</defs>
</svg>
