<svg width="400" height="400" viewBox="0 0 400 400" fill="none" xmlns="http://www.w3.org/2000/svg">
<rect width="400" height="400" rx="200" fill="#0A0A0A"/>
<path d="M245.448 221.395C263.671 210.833 275.922 191.108 275.922 168.514V142.597C275.922 100.667 241.939 66.6667 200.008 66.6667C158.078 66.6667 124.078 100.667 124.078 142.597V170.37H170.362V172.176C164.743 173.576 159.428 175.753 154.551 178.605C136.328 189.167 124.078 208.892 124.078 231.486V257.403C124.078 299.334 158.061 333.333 199.991 333.333C241.922 333.333 275.922 299.334 275.922 257.403V229.63H229.638V227.824C235.257 226.424 240.572 224.247 245.448 221.395ZM214.823 266.667C214.823 274.85 208.192 281.482 200.008 281.482C191.825 281.482 185.193 274.85 185.193 266.667V133.333C185.193 125.15 191.825 118.519 200.008 118.519C208.192 118.519 214.823 125.15 214.823 133.333V266.667Z" fill="#F2F2F2"/>
</svg>
