<svg width="836" height="400" viewBox="0 0 836 400" fill="none" xmlns="http://www.w3.org/2000/svg">
<rect width="2.2201" height="13.3206" transform="matrix(1 0 0 -1 30.6123 355.599)" fill="#00C278"/>
<rect width="8.88038" height="8.88038" transform="matrix(1 0 0 -1 27.2822 342.278)" fill="#00C278"/>
<rect width="2.2201" height="31.0813" transform="matrix(1 0 0 -1 30.6123 333.398)" fill="#00C278"/>
<rect width="2.2201" height="13.3206" transform="matrix(1 0 0 -1 670 186.871)" fill="#00C278"/>
<rect width="8.88038" height="8.88038" transform="matrix(1 0 0 -1 666.67 173.551)" fill="#00C278"/>
<rect width="2.2201" height="31.0813" transform="matrix(1 0 0 -1 670 164.67)" fill="#00C278"/>
<rect width="2.2201" height="35.5215" transform="matrix(1 0 0 -1 43.9331 400)" fill="#00C278"/>
<rect width="8.88038" height="22.201" transform="matrix(1 0 0 -1 40.6028 364.479)" fill="#00C278"/>
<rect width="2.2201" height="35.5215" transform="matrix(1 0 0 -1 683.321 231.273)" fill="#00C278"/>
<rect width="8.88038" height="22.201" transform="matrix(1 0 0 -1 679.99 195.752)" fill="#00C278"/>
<rect width="2.2201" height="17.7608" transform="matrix(1 0 0 -1 57.2537 382.24)" fill="#FF575A"/>
<rect width="8.88038" height="48.8421" transform="matrix(1 0 0 -1 53.9233 364.479)" fill="#FF575A"/>
<rect width="2.2201" height="53.2823" transform="matrix(1 0 0 -1 57.2537 315.637)" fill="#FF575A"/>
<rect width="2.2201" height="17.7608" transform="matrix(1 0 0 -1 696.641 213.512)" fill="#FF575A"/>
<rect width="8.88038" height="48.8421" transform="matrix(1 0 0 -1 693.311 195.752)" fill="#FF575A"/>
<rect width="2.2201" height="53.2823" transform="matrix(1 0 0 -1 696.641 146.91)" fill="#FF575A"/>
<rect width="2.2201" height="35.5215" transform="matrix(1 0 0 -1 70.5742 373.359)" fill="#00C278"/>
<rect width="8.88038" height="22.201" transform="matrix(1 0 0 -1 67.2439 337.838)" fill="#00C278"/>
<rect width="2.2201" height="35.5215" transform="matrix(1 0 0 -1 70.5742 315.637)" fill="#00C278"/>
<rect width="2.2201" height="35.5215" transform="matrix(1 0 0 -1 709.962 204.632)" fill="#00C278"/>
<rect width="8.88038" height="22.201" transform="matrix(1 0 0 -1 706.632 169.111)" fill="#00C278"/>
<rect width="2.2201" height="35.5215" transform="matrix(1 0 0 -1 709.962 146.91)" fill="#00C278"/>
<rect width="2.2201" height="13.3206" transform="matrix(1 0 0 -1 83.8948 373.359)" fill="#00C278"/>
<rect width="8.88038" height="22.201" transform="matrix(1 0 0 -1 80.5645 360.039)" fill="#00C278"/>
<rect width="2.2201" height="31.0813" transform="matrix(1 0 0 -1 83.8948 337.838)" fill="#00C278"/>
<rect width="2.2201" height="13.3206" transform="matrix(1 0 0 -1 723.282 204.632)" fill="#00C278"/>
<rect width="8.88038" height="22.201" transform="matrix(1 0 0 -1 719.952 191.312)" fill="#00C278"/>
<rect width="2.2201" height="31.0813" transform="matrix(1 0 0 -1 723.282 169.111)" fill="#00C278"/>
<rect width="2.2201" height="22.201" transform="matrix(1 0 0 -1 97.2153 360.039)" fill="#FF575A"/>
<rect width="8.88038" height="8.88038" transform="matrix(1 0 0 -1 93.8853 337.838)" fill="#FF575A"/>
<rect width="2.2201" height="22.201" transform="matrix(1 0 0 -1 97.2153 328.958)" fill="#FF575A"/>
<rect x="110.536" y="293.436" width="2.2201" height="13.3206" fill="#FF575A"/>
<rect x="107.206" y="306.756" width="8.88038" height="22.201" fill="#FF575A"/>
<rect x="110.536" y="328.958" width="2.2201" height="31.0813" fill="#FF575A"/>
<rect x="17.2917" y="293.436" width="2.2201" height="13.3206" fill="#00C278"/>
<rect x="13.9617" y="306.756" width="8.88038" height="22.201" fill="#00C278"/>
<rect x="17.2917" y="328.958" width="2.2201" height="31.0813" fill="#00C278"/>
<rect x="123.856" y="262.354" width="2.2201" height="17.7608" fill="#FF575A"/>
<rect x="120.526" y="280.115" width="8.88038" height="48.8421" fill="#FF575A"/>
<rect x="123.856" y="328.958" width="2.2201" height="53.2823" fill="#FF575A"/>
<rect x="137.177" y="213.512" width="2.2201" height="17.7608" fill="#FF575A"/>
<rect x="133.847" y="231.273" width="8.88038" height="48.8421" fill="#FF575A"/>
<rect x="137.177" y="280.115" width="2.2201" height="13.3206" fill="#FF575A"/>
<rect width="2.2201" height="8.88038" transform="matrix(1 0 0 -1 150.498 240.154)" fill="#00C278"/>
<rect width="8.88038" height="8.88038" transform="matrix(1 0 0 -1 147.167 231.273)" fill="#00C278"/>
<rect width="2.2201" height="8.88038" transform="matrix(1 0 0 -1 150.498 222.393)" fill="#00C278"/>
<rect width="2.2201" height="13.3206" transform="matrix(1 0 0 -1 163.818 266.795)" fill="#00C278"/>
<rect width="8.88038" height="22.201" transform="matrix(1 0 0 -1 160.488 253.474)" fill="#00C278"/>
<rect width="2.2201" height="31.0813" transform="matrix(1 0 0 -1 163.818 231.273)" fill="#00C278"/>
<rect width="2.2201" height="22.201" transform="matrix(1 0 0 -1 177.139 288.996)" fill="#00C278"/>
<rect width="8.88038" height="13.3206" transform="matrix(1 0 0 -1 173.809 266.795)" fill="#00C278"/>
<rect width="2.2201" height="31.0813" transform="matrix(1 0 0 -1 177.139 253.474)" fill="#00C278"/>
<rect x="190.459" y="195.752" width="2.2201" height="35.5215" fill="#FF575A"/>
<rect x="187.129" y="231.273" width="8.88038" height="22.201" fill="#FF575A"/>
<rect width="2.2201" height="35.5215" transform="matrix(1 0 0 -1 203.78 288.996)" fill="#00C278"/>
<rect width="8.88038" height="13.3206" transform="matrix(1 0 0 -1 200.45 253.474)" fill="#00C278"/>
<rect width="2.2201" height="8.88038" transform="matrix(1 0 0 -1 203.78 240.154)" fill="#00C278"/>
<rect x="217.1" y="84.7468" width="2.2201" height="22.201" fill="#FF575A"/>
<rect x="213.77" y="106.948" width="8.88038" height="133.206" fill="#FF575A"/>
<rect x="803.206" y="71.4263" width="2.2201" height="22.201" fill="#FF575A"/>
<rect x="799.876" y="93.6272" width="8.88038" height="133.206" fill="#FF575A"/>
<rect x="230.421" y="84.7468" width="2.2201" height="53.2823" fill="#FF575A"/>
<rect x="227.091" y="138.029" width="8.88038" height="48.8421" fill="#FF575A"/>
<rect x="230.421" y="186.871" width="2.2201" height="13.3206" fill="#FF575A"/>
<rect width="2.2201" height="53.2823" transform="matrix(1 0 0 -1 243.742 240.154)" fill="#00C278"/>
<rect width="8.88038" height="17.7608" transform="matrix(1 0 0 -1 240.411 186.871)" fill="#00C278"/>
<rect width="2.2201" height="26.6411" transform="matrix(1 0 0 -1 243.742 169.111)" fill="#00C278"/>
<rect width="2.2201" height="13.3206" transform="matrix(1 0 0 -1 257.062 253.474)" fill="#00C278"/>
<rect width="8.88038" height="71.0431" transform="matrix(1 0 0 -1 253.732 240.154)" fill="#00C278"/>
<rect width="2.2201" height="26.6411" transform="matrix(1 0 0 -1 257.062 169.111)" fill="#00C278"/>
<rect x="267.053" y="213.512" width="8.88038" height="31.0813" fill="#00C278"/>
<rect x="270.383" y="244.594" width="2.2201" height="13.3206" fill="#00C278"/>
<rect width="2.2201" height="22.201" transform="matrix(1 0 0 -1 283.703 240.154)" fill="#FF575A"/>
<rect width="8.88038" height="35.5215" transform="matrix(1 0 0 -1 280.373 217.953)" fill="#FF575A"/>
<rect width="2.2201" height="22.201" transform="matrix(1 0 0 -1 283.703 182.431)" fill="#FF575A"/>
<rect width="2.2201" height="39.9617" transform="matrix(1 0 0 -1 297.024 222.393)" fill="#FF575A"/>
<rect width="8.88038" height="48.8421" transform="matrix(1 0 0 -1 293.694 182.431)" fill="#FF575A"/>
<rect width="2.2201" height="13.3206" transform="matrix(1 0 0 -1 297.024 133.589)" fill="#FF575A"/>
<rect width="2.2201" height="39.9617" transform="matrix(1 0 0 -1 3.97119 373.359)" fill="#00C278"/>
<rect width="8.88038" height="48.8421" transform="matrix(1 0 0 -1 0.641113 333.398)" fill="#00C278"/>
<rect width="2.2201" height="13.3206" transform="matrix(1 0 0 -1 3.97119 284.555)" fill="#00C278"/>
<rect width="2.2201" height="17.7608" transform="matrix(1 0 0 -1 310.344 182.431)" fill="#FF575A"/>
<rect width="8.88038" height="39.9617" transform="matrix(1 0 0 -1 307.014 164.67)" fill="#FF575A"/>
<rect width="2.2201" height="22.201" transform="matrix(1 0 0 -1 310.344 124.708)" fill="#FF575A"/>
<rect width="2.2201" height="8.88038" transform="matrix(1 0 0 -1 323.665 169.111)" fill="#FF575A"/>
<rect width="8.88038" height="22.201" transform="matrix(1 0 0 -1 320.335 160.23)" fill="#FF575A"/>
<rect width="2.2201" height="22.201" transform="matrix(1 0 0 -1 323.665 138.029)" fill="#FF575A"/>
<rect width="2.2201" height="8.88038" transform="matrix(1 0 0 -1 336.986 149.13)" fill="#FF575A"/>
<rect width="8.88038" height="13.3206" transform="matrix(1 0 0 -1 333.656 140.249)" fill="#FF575A"/>
<rect width="2.2201" height="48.8421" transform="matrix(1 0 0 -1 336.986 126.929)" fill="#FF575A"/>
<rect width="2.2201" height="39.9617" transform="matrix(1 0 0 -1 350.306 164.67)" fill="#FF575A"/>
<rect width="8.88038" height="48.8421" transform="matrix(1 0 0 -1 346.976 124.708)" fill="#FF575A"/>
<rect width="2.2201" height="13.3206" transform="matrix(1 0 0 -1 350.306 75.8665)" fill="#FF575A"/>
<rect width="2.2201" height="39.9617" transform="matrix(1 0 0 -1 736.603 209.072)" fill="#FF575A"/>
<rect width="8.88038" height="48.8421" transform="matrix(1 0 0 -1 733.273 169.111)" fill="#FF575A"/>
<rect width="2.2201" height="13.3206" transform="matrix(1 0 0 -1 736.603 120.268)" fill="#FF575A"/>
<rect width="2.2201" height="8.88038" transform="matrix(1 0 0 -1 363.627 140.249)" fill="#FF575A"/>
<rect width="8.88038" height="22.201" transform="matrix(1 0 0 -1 360.297 131.369)" fill="#FF575A"/>
<rect width="2.2201" height="22.201" transform="matrix(1 0 0 -1 363.627 109.168)" fill="#FF575A"/>
<rect width="2.2201" height="17.7608" transform="matrix(1 0 0 -1 376.947 177.991)" fill="#00C278"/>
<rect width="8.88038" height="44.4019" transform="matrix(1 0 0 -1 373.617 160.23)" fill="#00C278"/>
<rect width="2.2201" height="26.6411" transform="matrix(1 0 0 -1 376.947 115.828)" fill="#00C278"/>
<rect width="2.2201" height="17.7608" transform="matrix(1 0 0 -1 390.268 213.512)" fill="#00C278"/>
<rect width="8.88038" height="97.6842" transform="matrix(1 0 0 -1 386.938 195.752)" fill="#00C278"/>
<rect width="2.2201" height="17.7608" transform="matrix(1 0 0 -1 403.589 217.953)" fill="#FF575A"/>
<rect width="8.88038" height="39.9617" transform="matrix(1 0 0 -1 400.258 200.192)" fill="#FF575A"/>
<rect width="2.2201" height="22.201" transform="matrix(1 0 0 -1 403.589 160.23)" fill="#FF575A"/>
<rect width="2.2201" height="35.5215" transform="matrix(1 0 0 -1 416.909 262.354)" fill="#00C278"/>
<rect width="8.88038" height="17.7608" transform="matrix(1 0 0 -1 413.579 226.833)" fill="#00C278"/>
<rect width="2.2201" height="17.7608" transform="matrix(1 0 0 -1 416.909 209.072)" fill="#00C278"/>
<rect x="749.923" y="133.589" width="2.2201" height="35.5215" fill="#00C278"/>
<rect x="746.593" y="169.111" width="8.88038" height="17.7608" fill="#00C278"/>
<rect x="749.923" y="186.871" width="2.2201" height="17.7608" fill="#00C278"/>
<rect x="430.23" y="98.0674" width="2.2201" height="26.6411" fill="#FF575A"/>
<rect x="426.9" y="124.708" width="8.88038" height="102.124" fill="#FF575A"/>
<rect x="430.23" y="226.833" width="2.2201" height="13.3206" fill="#FF575A"/>
<rect width="2.2201" height="26.6411" transform="matrix(1 0 0 -1 789.885 271.235)" fill="#FF575A"/>
<rect width="8.88038" height="35.5215" transform="matrix(1 0 0 -1 786.555 244.594)" fill="#FF575A"/>
<rect width="2.2201" height="13.3206" transform="matrix(1 0 0 -1 789.885 209.072)" fill="#FF575A"/>
<rect x="443.55" y="4.82349" width="2.2201" height="26.6411" fill="#FF575A"/>
<rect x="440.22" y="31.4646" width="8.88038" height="102.124" fill="#FF575A"/>
<rect x="443.55" y="133.589" width="2.2201" height="8.88038" fill="#FF575A"/>
<rect x="643.359" y="106.948" width="2.2201" height="26.6411" fill="#FF575A"/>
<rect x="640.029" y="133.589" width="8.88038" height="146.526" fill="#FF575A"/>
<rect x="643.359" y="280.115" width="2.2201" height="53.2823" fill="#FF575A"/>
<rect width="2.2201" height="17.7608" transform="matrix(1 0 0 -1 456.871 89.187)" fill="#00C278"/>
<rect width="8.88038" height="44.4019" transform="matrix(1 0 0 -1 453.541 71.4263)" fill="#00C278"/>
<rect width="2.2201" height="26.6411" transform="matrix(1 0 0 -1 456.871 27.0244)" fill="#00C278"/>
<rect width="2.2201" height="8.88038" transform="matrix(1 0 0 -1 470.191 102.508)" fill="#00C278"/>
<rect width="8.88038" height="35.5215" transform="matrix(1 0 0 -1 466.861 93.6272)" fill="#00C278"/>
<rect width="2.2201" height="8.88038" transform="matrix(1 0 0 -1 470.191 58.1057)" fill="#00C278"/>
<rect width="2.2201" height="8.88038" transform="matrix(1 0 0 -1 829.847 151.35)" fill="#00C278"/>
<rect width="8.88038" height="35.5215" transform="matrix(1 0 0 -1 826.517 142.469)" fill="#00C278"/>
<rect width="2.2201" height="8.88038" transform="matrix(1 0 0 -1 829.847 106.948)" fill="#00C278"/>
<rect width="2.2201" height="8.88038" transform="matrix(1 0 0 -1 776.565 271.235)" fill="#00C278"/>
<rect width="8.88038" height="35.5215" transform="matrix(1 0 0 -1 773.234 262.354)" fill="#00C278"/>
<rect width="2.2201" height="8.88038" transform="matrix(1 0 0 -1 776.565 226.833)" fill="#00C278"/>
<rect width="2.2201" height="35.5215" transform="matrix(1 0 0 -1 483.512 133.589)" fill="#00C278"/>
<rect width="8.88038" height="4.44019" transform="matrix(1 0 0 -1 480.182 98.0674)" fill="#00C278"/>
<rect width="2.2201" height="17.7608" transform="matrix(1 0 0 -1 483.512 93.6272)" fill="#00C278"/>
<rect width="2.2201" height="26.6411" transform="matrix(1 0 0 -1 496.833 209.072)" fill="#00C278"/>
<rect width="8.88038" height="71.0431" transform="matrix(1 0 0 -1 493.502 182.431)" fill="#00C278"/>
<rect width="2.2201" height="13.3206" transform="matrix(1 0 0 -1 496.833 111.388)" fill="#00C278"/>
<rect width="2.2201" height="26.6411" transform="matrix(1 0 0 -1 763.244 262.354)" fill="#00C278"/>
<rect width="8.88038" height="71.0431" transform="matrix(1 0 0 -1 759.914 235.713)" fill="#00C278"/>
<rect width="2.2201" height="13.3206" transform="matrix(1 0 0 -1 763.244 164.67)" fill="#00C278"/>
<rect x="510.153" y="133.589" width="2.2201" height="13.3206" fill="#FF575A"/>
<rect x="506.823" y="146.91" width="8.88038" height="22.201" fill="#FF575A"/>
<rect x="510.153" y="169.111" width="2.2201" height="31.0813" fill="#FF575A"/>
<rect width="2.2201" height="35.5215" transform="matrix(1 0 0 -1 523.474 226.833)" fill="#00C278"/>
<rect width="8.88038" height="17.7608" transform="matrix(1 0 0 -1 520.144 191.312)" fill="#00C278"/>
<rect width="2.2201" height="17.7608" transform="matrix(1 0 0 -1 523.474 173.551)" fill="#00C278"/>
<rect x="536.794" y="102.508" width="2.2201" height="22.201" fill="#FF575A"/>
<rect x="533.464" y="124.708" width="8.88038" height="57.7225" fill="#FF575A"/>
<rect x="550.115" y="102.508" width="2.2201" height="53.2823" fill="#FF575A"/>
<rect x="546.785" y="155.79" width="8.88038" height="8.88038" fill="#FF575A"/>
<rect x="550.115" y="164.67" width="2.2201" height="13.3206" fill="#FF575A"/>
<rect width="2.2201" height="17.7608" transform="matrix(1 0 0 -1 563.435 231.273)" fill="#00C278"/>
<rect width="8.88038" height="44.4019" transform="matrix(1 0 0 -1 560.105 213.512)" fill="#00C278"/>
<rect width="2.2201" height="62.1627" transform="matrix(1 0 0 -1 563.435 169.111)" fill="#00C278"/>
<rect width="2.2201" height="17.7608" transform="matrix(1 0 0 -1 656.679 195.752)" fill="#00C278"/>
<rect width="8.88038" height="44.4019" transform="matrix(1 0 0 -1 653.349 177.991)" fill="#00C278"/>
<rect width="2.2201" height="62.1627" transform="matrix(1 0 0 -1 656.679 133.589)" fill="#00C278"/>
<rect x="576.756" y="164.67" width="2.2201" height="35.5215" fill="#00C278"/>
<rect x="573.426" y="200.192" width="8.88038" height="17.7608" fill="#00C278"/>
<rect x="576.756" y="217.953" width="2.2201" height="17.7608" fill="#00C278"/>
<rect width="2.2201" height="35.5215" transform="matrix(1 0 0 -1 590.077 271.235)" fill="#00C278"/>
<rect width="8.88038" height="13.3206" transform="matrix(1 0 0 -1 586.746 235.713)" fill="#00C278"/>
<rect width="2.2201" height="8.88038" transform="matrix(1 0 0 -1 590.077 222.393)" fill="#00C278"/>
<rect width="2.2201" height="35.5215" transform="matrix(1 0 0 -1 603.397 284.555)" fill="#00C278"/>
<rect width="8.88038" height="22.201" transform="matrix(1 0 0 -1 600.067 249.034)" fill="#00C278"/>
<rect width="2.2201" height="35.5215" transform="matrix(1 0 0 -1 816.526 151.35)" fill="#00C278"/>
<rect width="8.88038" height="22.201" transform="matrix(1 0 0 -1 813.196 115.828)" fill="#00C278"/>
<rect width="2.2201" height="35.5215" transform="matrix(1 0 0 -1 630.038 333.398)" fill="#00C278"/>
<rect width="8.88038" height="133.206" transform="matrix(1 0 0 -1 626.708 297.876)" fill="#00C278"/>
<rect width="2.2201" height="8.88038" transform="matrix(1 0 0 -1 616.718 240.154)" fill="#00C278"/>
<rect width="8.88038" height="4.44019" transform="matrix(1 0 0 -1 613.388 231.273)" fill="#00C278"/>
<rect width="2.2201" height="26.6411" transform="matrix(1 0 0 -1 616.718 226.833)" fill="#00C278"/>
</svg>
