<svg width="1000" height="775" viewBox="0 0 1000 775" fill="none" xmlns="http://www.w3.org/2000/svg">
<mask id="mask0_6329_14788" style="mask-type:alpha" maskUnits="userSpaceOnUse" x="120" y="199" width="760" height="439">
<ellipse cx="379.636" cy="218.679" rx="379.636" ry="218.679" transform="matrix(1 0 0 -1 120.383 637.359)" fill="#D9D9D9"/>
</mask>
<g mask="url(#mask0_6329_14788)">
<line x1="0.5" y1="-0.5" x2="758.773" y2="-0.5" transform="matrix(1 3.93779e-08 1.94087e-07 -1 152.249 341.393)" stroke="#00C278" stroke-linecap="round" stroke-dasharray="2.4 2.4"/>
<line y1="-0.5" x2="1105.61" y2="-0.5" transform="matrix(1 -3.93779e-08 -1.94087e-07 -1 -52 430.196)" stroke="#EEEFF1"/>
<line y1="-0.5" x2="1105.61" y2="-0.5" transform="matrix(1 -3.93779e-08 -1.94087e-07 -1 -52 519)" stroke="#EEEFF1"/>
<line y1="-0.5" x2="1105.61" y2="-0.5" transform="matrix(1 -3.93779e-08 -1.94087e-07 -1 -52 607.804)" stroke="#EEEFF1"/>
<line y1="-0.5" x2="1105.61" y2="-0.5" transform="matrix(1 -3.93779e-08 -1.94087e-07 -1 -52 252.589)" stroke="#EEEFF1"/>
<path fill-rule="evenodd" clip-rule="evenodd" d="M192.139 0.191223L192.139 737.263L193.139 737.263L193.139 0.191223L192.139 0.191223Z" fill="#EEEFF1"/>
<path fill-rule="evenodd" clip-rule="evenodd" d="M367.796 0.191223L367.796 737.263L368.796 737.263L368.796 0.191223L367.796 0.191223Z" fill="#EEEFF1"/>
<path fill-rule="evenodd" clip-rule="evenodd" d="M543.454 0.191223L543.454 737.263L544.454 737.263L544.454 0.191223L543.454 0.191223Z" fill="#EEEFF1"/>
<path fill-rule="evenodd" clip-rule="evenodd" d="M455.625 0.191223L455.625 737.263L456.625 737.263L456.625 0.191223L455.625 0.191223Z" fill="#EEEFF1"/>
<path fill-rule="evenodd" clip-rule="evenodd" d="M719.111 0.191223L719.111 737.263L720.111 737.263L720.111 0.191223L719.111 0.191223Z" fill="#EEEFF1"/>
<path fill-rule="evenodd" clip-rule="evenodd" d="M806.939 0.191223L806.939 737.263L807.939 737.263L807.939 0.191223L806.939 0.191223Z" fill="#EEEFF1"/>
<path fill-rule="evenodd" clip-rule="evenodd" d="M631.282 0.191223L631.282 737.263L632.282 737.263L632.282 0.191223L631.282 0.191223Z" fill="#EEEFF1"/>
<path fill-rule="evenodd" clip-rule="evenodd" d="M279.968 0.191223L279.968 737.263L280.968 737.263L280.968 0.191223L279.968 0.191223Z" fill="#EEEFF1"/>
</g>
</svg>
